<!-- Generated by IcoMoon.io -->
<svg version="1.1" xmlns="http://www.w3.org/2000/svg" width="32" height="32" viewBox="0 0 32 32">
<title>cup</title>
<path d="M26.6 3.4c0 0.6-0.040 1.2-0.080 1.8h1.76c-0.56 4.52-2.68 7.68-5.72 8.8 1.4-2.76 2.24-6.64 2.24-11.52-5.76-1.68-11.84-1.68-17.6 0 0 4.88 0.84 8.8 2.24 11.56-3-1.12-5.16-4.32-5.72-8.84h1.8c-0.040-0.6-0.080-1.2-0.080-1.8h-3.72l0.080 0.96c0.52 6.76 4.040 11.28 9.040 11.8 1.16 1.4 2.52 2.28 4 2.6v4c-1.28 0.2-2.56 0.68-3.64 1.52v4.12h9.6v-4.12c-1.080-0.8-2.28-1.32-3.56-1.52v-4c1.48-0.32 2.8-1.2 3.96-2.6 4.96-0.56 8.48-5.040 9-11.8l0.080-0.96h-3.68zM8.4 29.4h15.2v1.8h-15.2v-1.8z"></path>
</svg>
