<!-- Generated by IcoMoon.io -->
<svg version="1.1" xmlns="http://www.w3.org/2000/svg" width="32" height="32" viewBox="0 0 32 32">
<title>magic_search</title>
<path d="M20.667 18.667h-1.067l-0.4-0.4c1.333-1.467 2.133-3.467 2.133-5.6 0-4.8-3.867-8.667-8.667-8.667s-8.667 3.867-8.667 8.667c0 4.8 3.867 8.667 8.667 8.667 2.133 0 4.133-0.8 5.6-2.133l0.4 0.4v1.067l6.667 6.667 2-2-6.667-6.667zM12.667 18.667c-3.333 0-6-2.667-6-6s2.667-6 6-6 6 2.667 6 6c0 3.333-2.667 6-6 6zM18.667 3.2l-0.667 1.6-0.8-1.6-1.6-0.8 1.6-0.667 0.8-1.6 0.667 1.6 1.6 0.667zM9.467 25.067l-0.8 1.733-0.8-1.733-1.867-0.8 1.867-0.8 0.8-1.867 0.8 1.867 1.733 0.8zM27.2 12.533l-1.067 2.4-1.2-2.4-2.4-1.067 2.4-1.2 1.2-2.4 1.067 2.4 2.4 1.2z"></path>
</svg>
